HIERARCHY
ROOT Hips
{
  OFFSET -10.0563 7.73376 -472.55
  CHANNELS 6 Xposition Yposition Zposition Zrotation Xrotation Yrotation
  JOINT Spine
  {
    OFFSET 0 0 0
    CHANNELS 3 Zrotation Xrotation Yrotation
    JOINT Spine1
    {
      OFFSET 19 0 0
      CHANNELS 3 Zrotation Xrotation Yrotation
      JOINT Neck
      {
        OFFSET 22.5 0.6 0
        CHANNELS 3 Zrotation Xrotation Yrotation
        JOINT Head
        {
          OFFSET 14 0.0308777 0
          CHANNELS 3 Zrotation Xrotation Yrotation
          End Site
          {
            OFFSET 17 0 0
          }
        }
      }
      JOINT LeftShoulder
      {
        OFFSET 19.8 3.7 4.3
        CHANNELS 3 Zrotation Xrotation Yrotation
        JOINT LeftArm
        {
          OFFSET 8 0 0
          CHANNELS 3 Zrotation Xrotation Yrotation
          JOINT LeftForeArm
          {
            OFFSET 15.2 0 0
            CHANNELS 3 Zrotation Xrotation Yrotation
            JOINT LeftHand
            {
              OFFSET 17.8 0 0
              CHANNELS 3 Zrotation Xrotation Yrotation
              End Site
              {
                OFFSET 7.2 0 0
              }
            }
          }
        }
      }
      JOINT RightShoulder
      {
        OFFSET 19.8 3.7 -4.3
        CHANNELS 3 Zrotation Xrotation Yrotation
        JOINT RightArm
        {
          OFFSET 8 0 0.151654
          CHANNELS 3 Zrotation Xrotation Yrotation
          JOINT RightForeArm
          {
            OFFSET 15.2 0 0
            CHANNELS 3 Zrotation Xrotation Yrotation
            JOINT RightHand
            {
              OFFSET 17.8 0 0
              CHANNELS 3 Zrotation Xrotation Yrotation
              End Site
              {
                OFFSET 7.2 0 0
              }
            }
          }
        }
      }
    }
  }
  JOINT LeftUpLeg
  {
    OFFSET 5.98425 -7.666 4.78879
    CHANNELS 3 Zrotation Xrotation Yrotation
    JOINT LeftLeg
    {
      OFFSET 16 0 0
      CHANNELS 3 Zrotation Xrotation Yrotation
      JOINT LeftFoot
      {
        OFFSET 18 0 0
        CHANNELS 3 Zrotation Xrotation Yrotation
        End Site
        {
          OFFSET 0 -10.8 0
        }
      }
    }
  }
  JOINT RightUpLeg
  {
    OFFSET 5.98425 -7.66598 -4.78879
    CHANNELS 3 Zrotation Xrotation Yrotation
    JOINT RightLeg
    {
      OFFSET 16 0 0
      CHANNELS 3 Zrotation Xrotation Yrotation
      JOINT RightFoot
      {
        OFFSET 18 0 0
        CHANNELS 3 Zrotation Xrotation Yrotation
        End Site
        {
          OFFSET 0 -10.8 0
        }
      }
    }
  }
  JOINT Tail
  {
    OFFSET 6.83696 -0.722574 0
    CHANNELS 3 Zrotation Xrotation Yrotation
    JOINT Tail1
    {
      OFFSET 12 0 0
      CHANNELS 3 Zrotation Xrotation Yrotation
      End Site
      {
        OFFSET 12 0 0
      }
    }
  }
}
MOTION
Frames:	12
Frame Time:	0.0166667
42.0948 16.4291 35.746 -2.28418 -45.1813 88.6701 -108.136 -4.98751 -9.53145 -56.3797 -2.91673 7.95338 -9.61847 -10.7433 3.24269 -97.8218 70.9625 110.413 -110.779 -36.6302 -139.056 124.217 20.5848 -130.578 -61.3459 -34.4682 28.1057 1.23141 2.06991 -20.0556 75.3384 -31.3348 47.7941 58.8111 28.4155 -44.1243 -65.9113 16.2853 -30.1582 5.13789 0.788119 6.21122 -136.099 36.808 -34.2773 155.378 47.1165 -2.33825 -52.0292 -2.86281 -7.01215 -160.361 -45.5613 23.7435 151.412 -72.642 -12.9473 -18.3541 -8.07978 -37.4335 10.4085 34.9129 -3.01211 15.5531 -34.9948 11.4838 
42.1005 16.4321 35.7399 -2.3039 -45.1817 88.6406 -108.119 -5.01977 -9.57113 -56.3993 -2.9548 8.00388 -9.58018 -10.719 3.20686 -98.0755 70.8927 110.481 -110.772 -36.6254 -139.047 124.243 20.6879 -130.589 -61.2753 -34.4196 28.0928 1.07302 2.10368 -20.1379 75.299 -31.384 47.7671 59.2124 28.6355 -44.5287 -65.7799 16.3144 -30.3247 5.1837 0.809467 6.24156 -136.027 36.8427 -34.289 155.401 47.354 -2.33229 -52.0379 -2.85509 -7.03172 -160.612 -45.2313 23.6687 151.876 -71.9776 -12.4545 -18.2011 -8.13091 -37.2943 10.399 34.9084 -3.0058 15.5201 -34.9927 11.4528 
42.0936 16.4451 35.7476 -2.31924 -45.1673 88.6359 -108.146 -5.03289 -9.56596 -56.3887 -2.97139 7.99918 -9.53232 -10.6907 3.2381 -98.2847 70.8978 110.522 -110.754 -36.6055 -139.039 124.223 20.7609 -130.6 -61.2081 -34.5264 28.1638 1.10877 2.10755 -20.1752 75.3566 -31.2741 47.7236 59.2529 28.7443 -44.7498 -65.6776 16.5201 -30.3585 5.32357 0.783402 6.43092 -136.486 36.641 -34.0153 155.371 46.4687 -2.33078 -52.0505 -2.86958 -7.04608 -160.576 -44.9033 23.7614 151.962 -71.9355 -12.3908 -18.091 -8.13327 -37.0831 10.4098 34.9025 -3.05974 15.5077 -34.9769 11.4499 
42.0654 16.4465 35.7492 -2.32072 -45.1542 88.6468 -108.185 -5.00264 -9.65085 -56.345 -2.96099 8.11773 -9.66606 -10.7219 3.14539 -98.1306 70.9673 110.381 -110.739 -36.5864 -139.036 124.073 20.832 -130.468 -61.1485 -34.6728 28.2707 1.26482 2.08199 -20.1053 75.2982 -31.3786 47.7529 59.1662 28.6589 -44.6922 -65.5257 16.8545 -30.351 5.26568 0.710742 6.83338 -136.579 36.5986 -33.9835 155.384 45.8825 -2.32485 -51.8357 -2.8877 -6.93572 -160.052 -45.1556 24.0308 151.144 -73.0914 -13.2222 -18.2133 -8.06211 -37.1433 10.4439 34.8739 -3.09987 15.5119 -34.9395 11.4534 
42.0593 16.4309 35.7399 -2.28207 -45.1958 88.6495 -108.284 -5.03366 -9.75139 -56.156 -3.0017 8.24502 -9.85581 -10.7062 3.1201 -98.0684 71.0073 110.391 -110.736 -36.573 -139.054 124.06 20.8235 -130.465 -61.2304 -34.622 28.2553 1.21285 2.087 -20.1082 75.3088 -31.3879 47.8095 58.8534 28.4239 -44.4037 -65.8143 16.5398 -30.167 5.03631 0.722608 6.59599 -136.234 36.7309 -34.1937 155.435 46.3318 -2.32026 -51.7412 -2.88465 -6.88946 -160.072 -45.4861 23.9825 151.06 -73.2193 -13.3196 -18.2877 -8.07305 -37.3823 10.5112 34.864 -3.07925 15.4775 -34.8969 11.4127 
42.0767 16.4255 35.7543 -2.25116 -45.2074 88.6484 -108.293 -5.10807 -9.83196 -56.1746 -3.06978 8.31921 -9.91289 -10.6326 3.22157 -98.1443 71.136 110.469 -110.763 -36.54 -139.189 124.059 20.8045 -130.559 -61.2701 -34.6851 28.2964 1.22449 2.08436 -20.1666 75.4122 -31.2519 47.8653 58.2552 28.1311 -43.8684 -66.0732 16.2148 -29.9129 5.04727 0.754463 6.18038 -136.087 36.841 -34.277 155.416 46.903 -2.32587 -51.9911 -2.87216 -6.97141 -160.373 -45.5491 23.8265 151.522 -72.6096 -12.8574 -18.2943 -8.11002 -37.4839 10.5312 34.8688 -3.0593 15.4536 -34.879 11.3975 
42.0862 16.4371 35.7815 -2.27314 -45.1399 88.6505 -108.321 -5.10783 -9.84587 -56.2548 -3.06267 8.31355 -10.0372 -10.5882 3.0787 -98.2233 70.9032 110.736 -110.768 -36.4923 -139.295 124.052 20.8225 -130.622 -61.2967 -34.7831 28.35 1.2482 2.08295 -20.1804 75.3821 -31.2713 47.8045 58.4331 28.2387 -43.8639 -65.9419 16.4451 -30.0663 5.15091 0.751856 6.29573 -135.899 36.9848 -34.4025 155.434 47.4241 -2.32187 -52.0335 -2.8641 -6.97944 -160.336 -45.3718 23.9882 151.469 -72.6038 -12.8533 -18.2418 -8.1191 -37.4331 10.4786 34.8526 -3.08766 15.4388 -34.876 11.3857 
42.0766 16.4436 35.7909 -2.27693 -45.1147 88.6607 -108.477 -5.08915 -9.79205 -56.0424 -3.032 8.2402 -10.2273 -10.5541 3.00647 -98.5879 70.667 110.948 -110.766 -36.5133 -139.25 124.074 20.7426 -130.659 -61.455 -34.7849 28.3424 1.23953 2.08424 -20.1802 75.3923 -31.2359 47.7618 58.6303 28.3332 -43.9722 -66.01 16.5662 -30.1801 5.14559 0.752624 6.3371 -136.025 36.9377 -34.3395 155.459 47.1873 -2.31888 -51.9867 -2.87192 -6.96105 -160.05 -45.2606 24.1386 151.237 -72.9124 -13.0833 -18.2954 -8.06638 -37.2737 10.4426 34.8742 -3.11448 15.4559 -34.8937 11.3985 
42.0573 16.4365 35.779 -2.22726 -45.1623 88.6779 -108.454 -5.10453 -9.84015 -55.9933 -3.07466 8.33406 -10.279 -10.5432 3.12195 -98.8538 70.9837 110.663 -110.752 -36.5317 -139.178 124.049 20.7199 -130.584 -61.4222 -34.757 28.3188 1.20962 2.09304 -20.1909 75.4297 -31.2218 47.8595 58.4273 28.2079 -44.0141 -66.0512 16.4241 -30.0173 5.12445 0.749079 6.23969 -136.231 36.801 -34.2064 155.476 46.5861 -2.32152 -51.8647 -2.89116 -6.89462 -159.761 -45.3123 24.17 151.141 -73.0287 -13.1739 -18.4784 -7.98105 -37.1123 10.4424 34.9488 -3.09197 15.5074 -34.9325 11.4488 
42.0546 16.4372 35.7809 -2.22522 -45.1667 88.6672 -108.414 -5.126 -9.84355 -56.0288 -3.1019 8.34551 -10.3614 -10.4928 3.09492 -99.1167 70.9722 110.713 -110.759 -36.572 -139.117 123.986 20.6846 -130.533 -61.3994 -34.7948 28.3378 1.20731 2.10055 -20.234 75.4434 -31.2079 47.876 58.4404 28.1589 -44.2473 -66.0234 16.4504 -29.9527 4.99413 0.725979 6.32174 -136.304 36.7393 -34.1719 155.474 46.1731 -2.32275 -51.7725 -2.89812 -6.85451 -159.857 -45.2586 24.1579 151.226 -72.8938 -13.0741 -18.4757 -7.98915 -37.1201 10.417 34.9698 -3.069 15.5372 -34.9518 11.4738 
42.0758 16.4498 35.8002 -2.27939 -45.1014 88.6356 -108.357 -5.12651 -9.77999 -56.1901 -3.08483 8.24539 -10.3974 -10.4315 2.99636 -99.4817 70.723 110.972 -110.777 -36.5927 -139.123 124.002 20.6768 -130.603 -61.4131 -34.8138 28.3497 1.19162 2.10154 -20.2849 75.38 -31.2633 47.7799 58.6384 28.2583 -44.2835 -65.8623 16.7806 -30.1632 5.10753 0.721499 6.49405 -136.241 36.8198 -34.2158 155.438 46.6906 -2.32456 -52.0367 -2.87397 -6.99103 -159.919 -45.2826 24.184 151.068 -73.1129 -13.2451 -18.3816 -8.02167 -37.1967 10.341 34.9341 -3.05659 15.5286 -34.9614 11.4637 
42.0881 16.4516 35.7972 -2.31565 -45.052 88.6091 -108.183 -5.12468 -9.78905 -56.5267 -3.0793 8.24041 -10.3771 -10.3987 2.93791 -99.4944 70.7754 110.965 -110.775 -36.5624 -139.177 124.067 20.7984 -130.621 -61.2026 -34.8021 28.3351 1.1853 2.10351 -20.2651 75.3148 -31.3597 47.7679 58.4489 28.2219 -43.9763 -65.7392 16.6307 -30.168 5.09641 0.737593 6.48166 -135.996 36.9108 -34.3642 155.464 47.2435 -2.32175 -51.9999 -2.86273 -6.99757 -159.901 -45.3922 24.2105 150.945 -73.2575 -13.3623 -18.3305 -8.03878 -37.2392 10.2761 34.9067 -3.02623 15.5171 -34.9811 11.4718 
